<svg id="Layer_1" data-name="Layer 1" xmlns="http://www.w3.org/2000/svg" xmlns:xlink="http://www.w3.org/1999/xlink" viewBox="0 0 479.9 267.1"><defs><style>.cls-1,.cls-3,.cls-5,.cls-6{fill:none;}.cls-1{stroke:#231f20;}.cls-1,.cls-2,.cls-3,.cls-6{stroke-miterlimit:10;}.cls-2{fill:#26384a;}.cls-2,.cls-3,.cls-6{stroke:#bb8c2d;}.cls-2,.cls-6{stroke-width:3px;}.cls-3{stroke-width:4px;}.cls-4{fill:#bb8c2d;}</style></defs><title>logo</title><path class="cls-1" d="M-21,132" transform="translate(-22.55 -157.55)"/><circle class="cls-2" cx="239.55" cy="38.45" r="36.95"/><line class="cls-3" x1="65.98" y1="48.32" x2="199.75" y2="48.32"/><path class="cls-3" d="M89.44,203.91c0,20.41-22.28,36.93-49.82,36.93" transform="translate(-22.55 -157.55)"/><image width="512" height="512" transform="translate(207.49 6.39) scale(0.13)" xlink:href="ci_cat_1203752.png"/><path class="cls-4" d="M121,344.9c0,3.14-1.64,5.82-4.91,8.07a20.52,20.52,0,0,1-11.87,3.36A20.56,20.56,0,0,1,92.36,353c-3.3-2.25-4.94-4.93-4.94-8.07V288.24q0-4.69,4.94-8.06a20.49,20.49,0,0,1,11.84-3.37,20.45,20.45,0,0,1,11.87,3.37q4.91,3.36,4.91,8.06v12.64H109.79V283.32a3.91,3.91,0,0,0-1.64-3.17,6.63,6.63,0,0,0-7.91,0,3.94,3.94,0,0,0-1.64,3.17v66.5a3.94,3.94,0,0,0,1.64,3.17,6.59,6.59,0,0,0,7.91,0,3.91,3.91,0,0,0,1.64-3.17V332.27H121Zm-26.13,7.55A8,8,0,0,1,93,347V286.11a7.9,7.9,0,0,1,1.84-5.36q-4.63,2.52-4.64,6.73v58.24Q90.21,349.88,94.85,352.45Zm20.54-53.54V286.44q0-4.49-5-7.06a7.18,7.18,0,0,1,2.25,5.53v14Zm0,47.79V334.29h-2.8v14a7.1,7.1,0,0,1-2.25,5.47Q115.38,351.2,115.39,346.7Z" transform="translate(-22.55 -157.55)"/><path class="cls-4" d="M167.78,355.78H149.56v-2h3.55V315.37H141.92v38.39h3.48v2H127.26v-2h3.47V279.38h-3.47v-2H145.4v2h-3.48v34h11.19v-34h-3.55v-2h18.22v2h-3.55v74.38h3.55Zm-31.45-2V279.38h-2.8v74.38Zm22.37,0V279.38h-2.79v74.38Z" transform="translate(-22.55 -157.55)"/><path class="cls-4" d="M207.55,355.78H189.4v-2h3.48L190.36,331h-10l-2.8,22.75H181v2h-10.5v-2H174l9.83-76.4H195l9.07,76.4h3.48ZM190.22,329l-4.64-42.38L180.47,329Zm8.25,24.72-8.8-74.38h-2.79l8.8,74.38Z" transform="translate(-22.55 -157.55)"/><path class="cls-4" d="M252.23,300.88h-10.3v-21.5h-5.05v74.38h3.48v2H222.21v-2h3.48V279.38h-5v21.5H210.34V277.36h41.89Zm-36.29-2V279.38h-2.8v19.53Zm15.35,54.85V279.38h-2.8v74.38Zm16.17-54.85V279.38h-2.73v19.53Z" transform="translate(-22.55 -157.55)"/><path class="cls-4" d="M313.69,279.38h-3.48v76.4h-8.93l-16.92-61v59h3.48v2H277.4v-2h3.48V279.38H277.4v-2h14.12l15.22,54.47V279.38h-3.48v-2h10.43Zm-6.41,74.38-20.53-74.38h-3.07l20.53,74.38Z" transform="translate(-22.55 -157.55)"/><path class="cls-4" d="M353.53,344.9c0,3.14-1.63,5.82-4.91,8.07a22.58,22.58,0,0,1-23.7,0c-3.3-2.25-4.95-4.93-4.95-8.07V288.24q0-4.69,4.95-8.06a22.52,22.52,0,0,1,23.7,0q4.92,3.36,4.91,8.06Zm-26.12,7.55a8,8,0,0,1-1.85-5.42V286.11a7.9,7.9,0,0,1,1.85-5.36c-3.1,1.68-4.64,3.92-4.64,6.73v58.24C322.77,348.49,324.31,350.73,327.41,352.45Zm14.94-2.63v-66.5a3.94,3.94,0,0,0-1.64-3.17,6.63,6.63,0,0,0-7.91,0,3.91,3.91,0,0,0-1.64,3.17v66.5A3.91,3.91,0,0,0,332.8,353a6.59,6.59,0,0,0,7.91,0A3.94,3.94,0,0,0,342.35,349.82Zm5.59-3.12V286.44q0-4.49-5.05-7.06a7.18,7.18,0,0,1,2.25,5.53v63.38a7.1,7.1,0,0,1-2.25,5.47Q347.95,351.2,347.94,346.7Z" transform="translate(-22.55 -157.55)"/><path class="cls-4" d="M378.23,355.78H360.08v-2h3.48V279.38h-3.48v-2h18.15v2h-3.48v74.38h3.48Zm-9.07-2V279.38h-2.8v74.38Z" transform="translate(-22.55 -157.55)"/><path class="cls-4" d="M422.5,355.78h-4.84q-9.82,0-9.83-8.2V319.85a3.94,3.94,0,0,0-1.63-3.17,6.15,6.15,0,0,0-4-1.31H397.4v38.39h3.48v2H382.73v-2h3.48V279.38h-3.48v-2h19.51a20.5,20.5,0,0,1,11.87,3.36c3.28,2.25,4.91,4.93,4.91,8.07v15.15q0,7.32-9.75,10.39,9.75,3.29,9.75,10.44v26q0,3,3.21,3h.27Zm-30.7-2V279.38H389v74.38Zm16-44.9v-25a3.93,3.93,0,0,0-1.63-3.17,6.1,6.1,0,0,0-4-1.32H397.4v34h4.84a6.1,6.1,0,0,0,4-1.31A3.93,3.93,0,0,0,407.83,308.86Zm5.6-3.12V287q0-4.55-5-7.05a7.09,7.09,0,0,1,2.18,5.46v21.82a7.3,7.3,0,0,1-2.18,5.53Q413.43,310.22,413.43,305.74Zm2.8,48.57q-2.81-1.26-2.8-4.82V323q0-4.49-5-7.05a7.19,7.19,0,0,1,2.18,5.46v27.13C410.63,351.86,412.5,353.8,416.23,354.31Z" transform="translate(-22.55 -157.55)"/><line class="cls-5" x1="17.6" y1="97.98" x2="225.73" y2="97.98"/><line class="cls-6" x1="279.35" y1="56.54" x2="404.86" y2="56.54"/><path class="cls-4" d="M182.56,384.55c-1.24,0-2.34,0-3.5,0h-2.65a19.92,19.92,0,0,0,.24-3.22V376a8.2,8.2,0,0,0-.12-1.77c-.08-.39-.32-.52-.87-.52h-.13l.35-1c.57,0,1.86,0,2.55,0,1.75,0,2.84,0,4.58,0a3.49,3.49,0,0,1,2.12.56,2.17,2.17,0,0,1,.85,1.88c0,1.42-.83,2.15-2.4,2.74l0,.15h.7a2.44,2.44,0,0,1,2.63,2.67C186.93,382.77,185.37,384.55,182.56,384.55Zm-4.6-8.74a8.94,8.94,0,0,0-.12-1.76c-.09-.38-.32-.51-.8-.51h-.49c.34.1.47.2.54.51a8.21,8.21,0,0,1,.12,1.76v5.41a21.52,21.52,0,0,1-.12,2.43h.77c.06-1.19.1-1.67.1-2.48Zm3.52,3a6.44,6.44,0,0,0-1.07.1c.08-.36.2-.93.25-1.31a4.46,4.46,0,0,0,.48,0c.91,0,1.42-.66,1.42-1.87a1.53,1.53,0,0,0-1.68-1.73l-.8,0c0,.31-.07,1.1-.07,1.94v5.39a2.45,2.45,0,0,0,.28,1.53,1.42,1.42,0,0,0,1.1.37c1.29,0,2-.85,2-2.4S182.82,378.79,181.48,378.79Zm-.31-5.2h.07a1.92,1.92,0,0,1,1.9,2.16,2,2,0,0,1-1.73,2.21,2.46,2.46,0,0,0,2.51-2.42C183.92,374.44,183,373.49,181.17,373.59Zm.92,4.86c1.19.07,1.92.93,1.92,2.43s-.78,2.77-2.62,2.77a3.55,3.55,0,0,0,.44,0,2.72,2.72,0,0,0,3-2.79C184.84,379.45,183.87,378.45,182.09,378.45Z" transform="translate(-22.55 -157.55)"/><path class="cls-4" d="M189.43,376a8.72,8.72,0,0,0-.13-1.77c-.09-.39-.33-.52-.87-.52h-.14l.36-1c.56,0,1.45,0,2.14,0,.85,0,1.55,0,2.18,0a26.46,26.46,0,0,0-.17,3.26v5.37a10.33,10.33,0,0,0,.34,3.21c-.48,0-1.19,0-1.91,0s-1.46,0-2,0a19.77,19.77,0,0,0,.23-3.22Zm1.31-.14a8.21,8.21,0,0,0-.12-1.76c-.08-.38-.32-.51-.8-.51h-.49c.34.1.48.2.55.51a9.15,9.15,0,0,1,.11,1.76v5.41a21.35,21.35,0,0,1-.11,2.43h.76c.07-1.19.1-1.67.1-2.48Z" transform="translate(-22.55 -157.55)"/><path class="cls-4" d="M202,375.29a2.59,2.59,0,0,0-2.24-1.4c-.92,0-1.5.5-1.5,1.24,0,2.25,5.24,1.69,5.24,5.55,0,2.44-2.16,4.21-5.15,4.21a8.4,8.4,0,0,1-3.3-.7,21.72,21.72,0,0,0,.58-2.51l.36,0a3.18,3.18,0,0,0,2.66,1.66c1.09,0,1.79-.54,1.79-1.39,0-2.28-5.24-1.77-5.24-5.6,0-2.39,1.94-4,4.8-4a7.16,7.16,0,0,1,3,.68,16.21,16.21,0,0,0-.71,2.27ZM199.67,379c-1.75-.79-3.2-1.48-3.2-3.34a3,3,0,0,1,.7-2.15,3.25,3.25,0,0,0-1.28,2.53c0,2,1.52,2.72,3,3.36,1,.45,2.26,1.06,2.26,2.42a1.86,1.86,0,0,1-.68,1.49,2.28,2.28,0,0,0,1.32-2C201.77,380.06,200.62,379.4,199.67,379Z" transform="translate(-22.55 -157.55)"/><path class="cls-4" d="M209.7,384.48c-.73,0-1.47,0-2,0a19.77,19.77,0,0,0,.23-3.22V376c0-.41,0-1.46,0-1.85h-.51a4.34,4.34,0,0,0-3.18,1l-.34-.17a17.6,17.6,0,0,0,.43-2.28c1.51.07,2.31.08,3.21.08h4.3c1.35,0,2.6,0,3.66-.08a20.83,20.83,0,0,0-.55,2.29l-.35,0c-.41-.8-1.43-.9-2.43-.9h-.73c-.06.41-.07,1.44-.07,1.87v5.35a10.5,10.5,0,0,0,.32,3.21C211.12,384.5,210.41,384.48,209.7,384.48Zm-.48-8.33a15.78,15.78,0,0,0-.14-2.41h-.76a13.57,13.57,0,0,1,.15,2.41v5c0,.81,0,1.29-.1,2.48h.75c.07-1.19.1-1.67.1-2.48Z" transform="translate(-22.55 -157.55)"/><path class="cls-4" d="M223.93,384.62c-.4-.88-.45-.95-.67-1.41-.69-1.45-1.15-2.31-1.49-2.94-.45-.82-.58-.94-1-.94h-.14l.28-1.32a6.45,6.45,0,0,0,.66.05c1.07,0,1.7-.75,1.7-2a1.82,1.82,0,0,0-2.09-2,6.24,6.24,0,0,0-.85.06,11.66,11.66,0,0,0-.07,1.38v5.83a10.33,10.33,0,0,0,.34,3.21c-.48,0-1.19,0-1.9,0s-1.46,0-2,0a19.77,19.77,0,0,0,.23-3.22V376a8.72,8.72,0,0,0-.13-1.77c-.09-.39-.32-.52-.87-.52h-.13l.35-1c.56,0,1.45,0,2.62,0,2,0,2.79,0,4.66,0a3.43,3.43,0,0,1,2.56.69,2.53,2.53,0,0,1,.79,2,2.81,2.81,0,0,1-2.35,2.89c1.33,2.31,1.87,3.21,2.4,4a10.87,10.87,0,0,0,1.53,2l-.05.19C226.85,384.55,225.2,384.55,223.93,384.62Zm-5.72-8.81a8.21,8.21,0,0,0-.12-1.76c-.08-.38-.32-.51-.79-.51h-.5c.34.1.48.2.55.51a8.94,8.94,0,0,1,.12,1.76v3.05c0,.74,0,3.58-.12,4.79h.76c.07-1.19.1-1.67.1-2.48Zm5.14,4.59c-.51-.95-.82-1.42-1.28-1.46h-.78c.46,0,1,.87,1.89,2.64.32.63.85,1.58,1.09,2.07h.86C224.84,383.07,224.16,381.93,223.35,380.4Zm-1.48-6.64h.07a1.91,1.91,0,0,1,1.9,2.14,2.32,2.32,0,0,1-1.48,2.43,2.53,2.53,0,0,0,2.24-2.58C224.6,374.35,223.33,373.69,221.87,373.76Z" transform="translate(-22.55 -157.55)"/><path class="cls-4" d="M234.82,384.93c-4,0-6.46-2.37-6.46-6.19s2.82-6.51,6.84-6.51c4.67,0,6.57,2.92,6.57,6.22C241.77,382.39,239,384.93,234.82,384.93Zm-1.17-.48c-1.5-.26-3.88-2.13-3.88-5.71s2.3-5.53,3.85-5.95a5.85,5.85,0,0,0-4.66,5.93A5.4,5.4,0,0,0,233.65,384.45Zm4.37-5.73c0-3.18-1.06-5-2.93-5s-3,1.56-3,4.73,1.07,5,3,5S238,381.81,238,378.72Zm-2.23-5.34c2.28.5,2.86,3.1,2.86,5.43,0,1.87-.29,4.52-2.79,5,2.48-.28,3.6-2.47,3.6-5C239.46,375.88,238.39,373.71,235.79,373.38Z" transform="translate(-22.55 -157.55)"/><path class="cls-4" d="M248.86,376a8.72,8.72,0,0,0-.13-1.77c-.09-.39-.32-.52-.87-.52h-.13l.35-1c.56,0,1.45,0,2.52,0,2,0,3.14,0,5,0a2.85,2.85,0,0,1,3.11,3.14c0,2.18-1.36,3.86-4.67,3.86-.45,0-1,0-1.48,0,.08-.29.2-1,.27-1.44a6.45,6.45,0,0,0,.66,0c1.09,0,1.74-.78,1.74-2.11a1.88,1.88,0,0,0-2.09-2.12,6.21,6.21,0,0,0-.87.06,13,13,0,0,0-.07,1.38v5.83a10.33,10.33,0,0,0,.34,3.21c-.48,0-1.19,0-1.9,0s-1.47,0-2,0a19.77,19.77,0,0,0,.23-3.22Zm1.31-.14a8.21,8.21,0,0,0-.12-1.76c-.08-.38-.32-.51-.79-.51h-.5c.34.1.48.2.55.51a8.94,8.94,0,0,1,.12,1.76v3.05c0,.74,0,3.58-.12,4.79h.76c.07-1.19.1-1.67.1-2.48Zm3.71-2.14c1.19.07,2,.94,2,2.43s-.82,2.47-1.85,2.6a2.57,2.57,0,0,0,2.68-2.6C256.68,374.68,255.66,373.67,253.88,373.67Z" transform="translate(-22.55 -157.55)"/><path class="cls-4" d="M266,381c-.41,0-1.19,0-2,0s-1.61,0-2.07,0l-.39,1.28a4.72,4.72,0,0,0-.23,1.42,2.29,2.29,0,0,0,.14.85c-.44,0-.88,0-1.34,0s-1.14,0-1.77,0l-.07-.18a18.57,18.57,0,0,0,1.29-2.72l2.71-6.85a13.31,13.31,0,0,0,.69-2.14,32.73,32.73,0,0,0,3.88-.36,9.06,9.06,0,0,0,.46,1.75l2.53,7.5a24.59,24.59,0,0,0,1.29,3c-.35,0-1.09,0-1.94,0s-1.73,0-2.44,0a7,7,0,0,0-.38-2.31Zm-1.85-6.49-1.69,4.95c.39,0,1,0,1.57,0s1.15,0,1.56,0Zm4.13,9.19c-.19-.78-.55-1.83-.8-2.7l-1.55-5.15-.73-2.38-.75.09c.26.74.58,1.7.8,2.44l1.48,5.16c.19.66.54,1.8.7,2.54Z" transform="translate(-22.55 -157.55)"/><path class="cls-4" d="M279.74,384.62c-.4-.88-.45-.95-.67-1.41-.69-1.45-1.15-2.31-1.49-2.94-.45-.82-.58-.94-1-.94h-.13l.27-1.32a6.45,6.45,0,0,0,.66.05c1.07,0,1.7-.75,1.7-2a1.82,1.82,0,0,0-2.09-2,6.24,6.24,0,0,0-.85.06,11.66,11.66,0,0,0-.07,1.38v5.83a10.33,10.33,0,0,0,.34,3.21c-.47,0-1.19,0-1.9,0s-1.46,0-2,0a19.75,19.75,0,0,0,.24-3.22V376a8.53,8.53,0,0,0-.14-1.77c-.09-.39-.32-.52-.87-.52h-.13l.35-1c.56,0,1.45,0,2.62,0,2,0,2.79,0,4.66,0a3.48,3.48,0,0,1,2.57.69,2.56,2.56,0,0,1,.78,2,2.81,2.81,0,0,1-2.35,2.89c1.33,2.31,1.87,3.21,2.4,4a10.87,10.87,0,0,0,1.53,2l-.05.19C282.66,384.55,281,384.55,279.74,384.62ZM274,375.81a9.15,9.15,0,0,0-.11-1.76c-.09-.38-.33-.51-.8-.51h-.5c.34.1.48.2.55.51a8.94,8.94,0,0,1,.12,1.76v3.05c0,.74,0,3.58-.12,4.79h.76c.07-1.19.1-1.67.1-2.48Zm5.14,4.59c-.51-.95-.82-1.42-1.28-1.46h-.78c.46,0,1,.87,1.89,2.64.32.63.85,1.58,1.09,2.07h.86C280.65,383.07,280,381.93,279.16,380.4Zm-1.48-6.64h.07a1.91,1.91,0,0,1,1.9,2.14,2.32,2.32,0,0,1-1.48,2.43,2.54,2.54,0,0,0,2.25-2.58C280.42,374.35,279.14,373.69,277.68,373.76Z" transform="translate(-22.55 -157.55)"/><path class="cls-4" d="M285.62,376a7.87,7.87,0,0,0-.14-1.77c-.08-.39-.32-.52-.86-.52h-.14l.36-1c.56,0,1.44,0,2.14,0s1.54,0,2.17,0A26.46,26.46,0,0,0,289,376v5.37a10.33,10.33,0,0,0,.34,3.21c-.47,0-1.19,0-1.9,0s-1.46,0-2,0a19.75,19.75,0,0,0,.24-3.22Zm1.31-.14a8.94,8.94,0,0,0-.12-1.76c-.09-.38-.32-.51-.8-.51h-.49c.34.1.47.2.54.51a8.21,8.21,0,0,1,.12,1.76v5.41a21.52,21.52,0,0,1-.12,2.43h.77c.06-1.19.1-1.67.1-2.48Z" transform="translate(-22.55 -157.55)"/><path class="cls-4" d="M298.2,375.29a2.6,2.6,0,0,0-2.25-1.4c-.91,0-1.49.5-1.49,1.24,0,2.25,5.23,1.69,5.23,5.55,0,2.44-2.16,4.21-5.15,4.21a8.31,8.31,0,0,1-3.29-.7,21.68,21.68,0,0,0,.57-2.51l.36,0a3.18,3.18,0,0,0,2.67,1.66c1.09,0,1.78-.54,1.78-1.39,0-2.28-5.23-1.77-5.23-5.6,0-2.39,1.94-4,4.79-4a7.17,7.17,0,0,1,3,.68,16.32,16.32,0,0,0-.72,2.27ZM295.85,379c-1.75-.79-3.19-1.48-3.19-3.34a3,3,0,0,1,.69-2.15,3.24,3.24,0,0,0-1.27,2.53c0,2,1.51,2.72,3,3.36,1,.45,2.26,1.06,2.26,2.42a1.83,1.83,0,0,1-.68,1.49,2.28,2.28,0,0,0,1.33-2C298,380.06,296.8,379.4,295.85,379Z" transform="translate(-22.55 -157.55)"/><path class="cls-4" d="M302,376a7.87,7.87,0,0,0-.14-1.77c-.08-.39-.32-.52-.86-.52h-.14l.36-1c.56,0,1.44,0,2.14,0,.85,0,1.55,0,2.18,0a26.46,26.46,0,0,0-.17,3.26v5.37a10,10,0,0,0,.34,3.21c-.48,0-1.19,0-1.91,0s-1.46,0-2,0a19.75,19.75,0,0,0,.24-3.22Zm1.31-.14a8.94,8.94,0,0,0-.12-1.76c-.09-.38-.32-.51-.8-.51h-.49c.34.1.47.2.54.51a8.21,8.21,0,0,1,.12,1.76v5.41a21.52,21.52,0,0,1-.12,2.43h.77c.06-1.19.1-1.67.1-2.48Z" transform="translate(-22.55 -157.55)"/><path class="cls-4" d="M317.24,382.14a15.33,15.33,0,0,0-.43,2.46c-2.39-.07-3.6-.08-4.6-.08H308.5a19.88,19.88,0,0,0,.24-3.22V376a7.87,7.87,0,0,0-.14-1.77c-.08-.39-.32-.52-.86-.52h-.14l.36-1c.56,0,1.44,0,2.14,0h3.26c1.41,0,1.74,0,3.21-.05A16.28,16.28,0,0,0,316,375l-.35,0c-.46-.85-1.55-.94-2.52-.94-.32,0-.61,0-1,0,0,.29-.07,1-.07,1.61v1.52H314a17.5,17.5,0,0,0,1.82-.11,7.29,7.29,0,0,0-.05.92c0,.26,0,.56,0,.85-1.12-.08-1.65-.1-2.38-.1h-1.34v1.9c0,1.72.12,2.33,2,2.33a3.29,3.29,0,0,0,2.72-1Zm-7.19-6.33a8.94,8.94,0,0,0-.12-1.76c-.09-.38-.32-.51-.8-.51h-.49c.34.1.47.2.54.51a8.94,8.94,0,0,1,.12,1.76v5.41a21.52,21.52,0,0,1-.12,2.43H310c.06-1.19.1-1.67.1-2.48Z" transform="translate(-22.55 -157.55)"/><path class="cls-4" d="M321.39,377.38v3.94a9.3,9.3,0,0,0,.52,3.21c-.37,0-.88,0-1.34,0l-1.39,0a15.5,15.5,0,0,0,.22-3.22V376a8.38,8.38,0,0,0-.11-1.77c-.08-.39-.32-.52-.86-.52h-.14l.36-1c.56,0,1.44,0,2.14,0s1.6,0,2.23-.05a11.85,11.85,0,0,0,1.14,1.87l3,4.16c.19.26.76,1.06.87,1.25a10.51,10.51,0,0,1-.06-1.25v-2.78a8.77,8.77,0,0,0-.52-3.22c.42,0,.92,0,1.39,0s.95,0,1.36,0a15.82,15.82,0,0,0-.24,3.22v5.37a21.13,21.13,0,0,0,.29,3.33c-.37,0-.91,0-1.44,0s-1.07,0-1.45,0a18.46,18.46,0,0,0-1.14-1.68l-4-5.24c-.3-.39-.71-.92-.85-1.15C321.39,376.78,321.39,377,321.39,377.38Zm5.37,4-3.95-5.1a23.77,23.77,0,0,0-1.92-2.3,1.25,1.25,0,0,0-1.12-.42h-.31c.43.17,1.19,1.15,2.69,3.07l4,5.12c.49.65,1.14,1.34,1.49,1.92h.89C328,383,327.32,382.09,326.76,381.36Z" transform="translate(-22.55 -157.55)"/><path class="cls-4" d="M335.41,377.38v3.94a9.32,9.32,0,0,0,.53,3.21c-.38,0-.89,0-1.35,0l-1.39,0a14.83,14.83,0,0,0,.22-3.22V376a9.36,9.36,0,0,0-.1-1.77c-.09-.39-.32-.52-.87-.52h-.13l.35-1c.56,0,1.45,0,2.15,0,.85,0,1.59,0,2.22-.05a12.65,12.65,0,0,0,1.14,1.87l3,4.16c.19.26.77,1.06.87,1.25,0-.29,0-.77,0-1.25v-2.78a8.78,8.78,0,0,0-.53-3.22c.43,0,.92,0,1.4,0s.95,0,1.36,0a15.13,15.13,0,0,0-.24,3.22v5.37a20,20,0,0,0,.29,3.33c-.38,0-.92,0-1.45,0s-1.07,0-1.44,0c-.58-.9-.84-1.29-1.14-1.68l-4-5.24a13.53,13.53,0,0,1-.85-1.15C335.41,376.78,335.41,377,335.41,377.38Zm5.37,4-3.94-5.1a25.5,25.5,0,0,0-1.92-2.3,1.26,1.26,0,0,0-1.12-.42h-.31c.43.17,1.19,1.15,2.69,3.07l4,5.12c.5.65,1.14,1.34,1.5,1.92h.88C342.06,383,341.34,382.09,340.78,381.36Z" transform="translate(-22.55 -157.55)"/><path class="cls-4" d="M355.86,382.14a14.24,14.24,0,0,0-.42,2.46c-2.4-.07-3.61-.08-4.61-.08h-3.71a18.81,18.81,0,0,0,.24-3.22V376a8.72,8.72,0,0,0-.13-1.77c-.09-.39-.33-.52-.87-.52h-.14l.36-1c.56,0,1.44,0,2.14,0H352c1.41,0,1.73,0,3.21-.05a15,15,0,0,0-.56,2.29l-.36,0c-.46-.85-1.55-.94-2.52-.94-.32,0-.61,0-1,0,0,.29-.07,1-.07,1.61v1.52h1.9a17.34,17.34,0,0,0,1.82-.11c0,.34-.05.6-.05.92s0,.56,0,.85c-1.12-.08-1.65-.1-2.38-.1h-1.34v1.9c0,1.72.12,2.33,2,2.33a3.29,3.29,0,0,0,2.72-1Zm-7.19-6.33a8.21,8.21,0,0,0-.12-1.76c-.08-.38-.32-.51-.8-.51h-.49c.34.1.48.2.54.51a8.21,8.21,0,0,1,.12,1.76v5.41a19.41,19.41,0,0,1-.12,2.43h.77c.07-1.19.1-1.67.1-2.48Z" transform="translate(-22.55 -157.55)"/><line class="cls-6" x1="149.81" y1="220.54" x2="0.96" y2="220.54"/><line class="cls-6" x1="408.52" y1="258.41" x2="71.38" y2="258.41"/><line class="cls-3" x1="65.42" y1="265.1" x2="412.63" y2="265.1"/><path class="cls-3" d="M88.53,424.38C88.53,404.25,67.25,388,41,388" transform="translate(-22.55 -157.55)"/><path class="cls-3" d="M433.88,424.38c0-20.13,21.85-36.42,48.86-36.42" transform="translate(-22.55 -157.55)"/><line class="cls-6" x1="337.39" y1="220.54" x2="477.21" y2="220.54"/><path class="cls-4" d="M188.8,196.62a14.4,14.4,0,0,0-.43,2.47c-2.4-.07-3.6-.09-4.61-.09-1.68,0-2.8,0-3.7,0a20.11,20.11,0,0,0,.24-3.23v-5.35a7.81,7.81,0,0,0-.14-1.77c-.08-.39-.32-.53-.87-.53h-.13l.35-.95c.57,0,1.45,0,2.15,0h3.26c1.41,0,1.73,0,3.21-.05a14.72,14.72,0,0,0-.56,2.29l-.36,0c-.45-.84-1.54-.93-2.51-.93l-1,0c0,.29-.07,1-.07,1.62v1.51h1.91a17,17,0,0,0,1.81-.1c0,.34,0,.59,0,.92s0,.56,0,.85c-1.12-.09-1.65-.1-2.38-.1h-1.34v1.9c0,1.72.11,2.33,2,2.33a3.27,3.27,0,0,0,2.71-1Zm-7.19-6.32a9,9,0,0,0-.12-1.77c-.09-.37-.33-.51-.8-.51h-.5c.34.11.48.21.55.51a9,9,0,0,1,.12,1.77v5.41a21.63,21.63,0,0,1-.12,2.43h.76c.07-1.19.11-1.67.11-2.48Z" transform="translate(-22.55 -157.55)"/><path class="cls-4" d="M196.75,189.77a2.6,2.6,0,0,0-2.24-1.39c-.92,0-1.5.49-1.5,1.24,0,2.24,5.24,1.68,5.24,5.54,0,2.45-2.16,4.22-5.15,4.22a8.4,8.4,0,0,1-3.3-.7,21.72,21.72,0,0,0,.58-2.51l.35,0a3.22,3.22,0,0,0,2.67,1.67c1.09,0,1.79-.55,1.79-1.4,0-2.27-5.24-1.76-5.24-5.59,0-2.4,1.94-4,4.8-4a7.16,7.16,0,0,1,3,.68,15.92,15.92,0,0,0-.71,2.28Zm-2.34,3.69c-1.75-.78-3.2-1.48-3.2-3.33a3.06,3.06,0,0,1,.7-2.16,3.25,3.25,0,0,0-1.28,2.53c0,2,1.52,2.72,3,3.37,1,.44,2.26,1,2.26,2.41a1.86,1.86,0,0,1-.68,1.5,2.29,2.29,0,0,0,1.32-2C196.51,194.55,195.36,193.89,194.41,193.46Z" transform="translate(-22.55 -157.55)"/><path class="cls-4" d="M204.44,199c-.73,0-1.47,0-2,.05a20,20,0,0,0,.23-3.23v-5.35c0-.41,0-1.46,0-1.86h-.51a4.34,4.34,0,0,0-3.18,1l-.34-.17a17.47,17.47,0,0,0,.43-2.27c1.51.06,2.31.08,3.21.08h4.3c1.35,0,2.6,0,3.66-.08a20.83,20.83,0,0,0-.55,2.29l-.35,0c-.41-.79-1.43-.9-2.43-.9h-.74c-.05.41-.06,1.45-.06,1.87v5.36a10.59,10.59,0,0,0,.32,3.21C205.86,199,205.15,199,204.44,199Zm-.48-8.33a15.7,15.7,0,0,0-.14-2.41h-.76a13.51,13.51,0,0,1,.15,2.41v5c0,.82,0,1.29-.1,2.48h.75c.07-1.19.1-1.66.1-2.48Z" transform="translate(-22.55 -157.55)"/><path class="cls-4" d="M209.79,199.21c-.85,0-1-.24-1-1.17a2.18,2.18,0,0,1,.3-1.43,2.08,2.08,0,0,1,1.3-.27c.85,0,1,.22,1,1.34,0,.76-.08,1-.25,1.21S210.54,199.21,209.79,199.21Z" transform="translate(-22.55 -157.55)"/><path class="cls-4" d="M311,191.35c0-1.59-.12-1.88-.74-1.88a4.42,4.42,0,0,0-.9.13l-.68.16a3.78,3.78,0,0,0-.74.24l-.16-.14a11.9,11.9,0,0,0,.7-1.8,8.75,8.75,0,0,0,1.33-.21l3.21-.71c.3-.07.51-.12,1.05-.27l.26.29a17.81,17.81,0,0,0-.22,3v5.66a9.78,9.78,0,0,0,.35,3.21c-.44,0-1.12,0-1.82,0s-1.41,0-1.87,0a18.27,18.27,0,0,0,.23-3.11Zm1.25-.3a10.92,10.92,0,0,0-.12-1.77c-.06-.37-.23-.54-.51-.54a.89.89,0,0,0-.22,0l-.54.14a.7.7,0,0,1,.61.52,8.67,8.67,0,0,1,.09,1.62v4.62c0,.82,0,1.28-.11,2.47h.72c.07-1.19.1-1.65.1-2.47Z" transform="translate(-22.55 -157.55)"/><path class="cls-4" d="M318.2,198c3.2-.38,4.73-4,4.73-6.63,0-1.91-.63-3.08-1.58-3.08s-1.41,1-1.41,2.57c0,1.41.49,2.16,1.37,2.16a1.64,1.64,0,0,0,.65-.12c0,.46-.12,1-.12,1.26a3.37,3.37,0,0,1-1.82.49,3.12,3.12,0,0,1-3.13-3.4,4.35,4.35,0,0,1,4.63-4.4c2.79,0,4.37,1.59,4.37,4.42,0,3.74-3,6.86-6.46,8.21a11.64,11.64,0,0,0-1.35-1.19Zm3-10.78a3.91,3.91,0,0,0-3.77,4.08,2.73,2.73,0,0,0,2.79,2.92,4.05,4.05,0,0,0,1.24-.2l-.56,0c-1.58,0-2.74-.83-2.74-3a3.56,3.56,0,0,1,3.37-3.81A1.88,1.88,0,0,0,321.21,187.24Zm.34.66c1,.28,1.94.94,1.94,3.39a8.09,8.09,0,0,1-2.72,6.24,7.43,7.43,0,0,0,3.43-6.14C324.2,189.15,323.27,187.9,321.55,187.9Z" transform="translate(-22.55 -157.55)"/><path class="cls-4" d="M327.72,198c3.2-.38,4.73-4,4.73-6.63,0-1.91-.63-3.08-1.58-3.08s-1.41,1-1.41,2.57c0,1.41.49,2.16,1.37,2.16a1.64,1.64,0,0,0,.65-.12c-.05.46-.12,1-.12,1.26a3.37,3.37,0,0,1-1.82.49,3.12,3.12,0,0,1-3.12-3.4,4.34,4.34,0,0,1,4.62-4.4c2.79,0,4.37,1.59,4.37,4.42,0,3.74-3,6.86-6.46,8.21a11.64,11.64,0,0,0-1.35-1.19Zm3-10.78a3.91,3.91,0,0,0-3.77,4.08,2.73,2.73,0,0,0,2.79,2.92A4.05,4.05,0,0,0,331,194l-.56,0c-1.58,0-2.74-.83-2.74-3a3.56,3.56,0,0,1,3.37-3.81A1.88,1.88,0,0,0,330.73,187.24Zm.34.66c1,.28,1.94.94,1.94,3.39a8.09,8.09,0,0,1-2.72,6.24,7.43,7.43,0,0,0,3.43-6.14C333.72,189.15,332.79,187.9,331.07,187.9Z" transform="translate(-22.55 -157.55)"/><path class="cls-4" d="M336.9,196.85a2.75,2.75,0,0,0,2,.74c1.42,0,2.43-.78,2.43-2s-1-1.89-3.05-1.89a9.43,9.43,0,0,0-1.05.07c.05-.78.07-2.45.07-3.43,0-1.14,0-2,0-3.18.71,0,2,0,3.43,0a33.09,33.09,0,0,0,3.77-.13l.21.29a13.36,13.36,0,0,0-.89,2.36,6.48,6.48,0,0,0-1.75-.19h-3c0,.22,0,.55,0,.84a8.14,8.14,0,0,0,0,.85,6.18,6.18,0,0,1,3.81.85,3.72,3.72,0,0,1,1.52,3c0,2.41-2.15,4.23-5.1,4.23a12.18,12.18,0,0,1-2.23-.25,12.2,12.2,0,0,0-.48-2Zm5.68-9.23h-2.36c-1,0-1.58,0-2.21,0l0,.51c.44,0,1.67,0,2.11,0h2.43c.8,0,1.14,0,1.29-.32l.19-.37A4.65,4.65,0,0,1,342.58,187.62Zm-3.81,5.2h-.68l-.06.48a5.85,5.85,0,0,1,.66,0c1.21,0,3.23.44,3.23,2.13s-.95,2.55-3,2.65a3.4,3.4,0,0,0,.42,0c1.74,0,3.15-1,3.15-2.69C342.53,193.21,340.15,192.82,338.77,192.82Z" transform="translate(-22.55 -157.55)"/><line class="cls-6" x1="74.24" y1="56.54" x2="199.75" y2="56.54"/><path class="cls-4" d="M262,264.55h-7.33V264h.74V244.09h-.74v-.54h3.89v.54h-.74V264h1.8v-5.76H262Zm-5.39-.54V244.09H256V264Zm4.21,0V258.8h-.6V264Z" transform="translate(-22.55 -157.55)"/><path class="cls-4" d="M270.39,264.55h-7.5V264h.75V244.09h-.75v-.54h7.5v6.3H268v-5.76H266v9.1h2.84v.54H266V264H268v-5.76h2.4Zm-5.55-.54V244.09h-.6V264Zm4.35-14.69v-5.23h-.6v5.23Zm0,14.69V258.8h-.6V264Z" transform="translate(-22.55 -157.55)"/><line class="cls-6" y1="98.49" x2="227.73" y2="98.49"/><line class="cls-6" x1="253.26" y1="98.49" x2="479.9" y2="98.49"/><line class="cls-3" x1="413.11" y1="48.32" x2="279.35" y2="48.32"/><path class="cls-3" d="M434.75,203.91c0,20.41,22.29,36.93,49.83,36.93" transform="translate(-22.55 -157.55)"/></svg>
